<?xml version="1.0" standalone="no"?>
<!DOCTYPE svg PUBLIC "-//W3C//DTD SVG 20010904//EN"
 "http://www.w3.org/TR/2001/REC-SVG-20010904/DTD/svg10.dtd">
<svg version="1.0" xmlns="http://www.w3.org/2000/svg"
 width="512.000000pt" height="512.000000pt" viewBox="0 0 512.000000 512.000000"
 preserveAspectRatio="xMidYMid meet">
<metadata>
Created by potrace 1.11, written by Peter Selinger 2001-2013
</metadata>
<g transform="translate(0.000000,512.000000) scale(0.100000,-0.100000)"
fill="#000000" stroke="none">
<path d="M2370 5114 c-507 -46 -963 -219 -1359 -518 -119 -89 -319 -281 -423
-406 -301 -360 -499 -817 -570 -1315 -17 -116 -16 -511 0 -630 65 -460 232
-868 503 -1232 94 -126 366 -398 492 -492 629 -470 1412 -631 2162 -445 638
158 1198 562 1550 1119 81 128 195 362 244 501 287 809 153 1712 -355 2390
-414 552 -1005 904 -1694 1009 -101 15 -455 27 -550 19z m391 -485 c408 -41
802 -204 1112 -457 84 -70 246 -232 312 -315 82 -102 174 -249 240 -382 463
-937 154 -2067 -723 -2651 -269 -180 -606 -299 -941 -333 -540 -56 -1113 121
-1526 469 -236 199 -408 418 -540 685 -285 577 -285 1253 0 1830 131 267 303
484 540 685 410 347 987 525 1526 469z"/>
<path d="M1600 3187 c-19 -6 -58 -34 -85 -62 -78 -77 -95 -166 -51 -260 17
-36 151 -190 478 -546 251 -273 468 -505 484 -516 82 -57 186 -57 268 0 16 11
233 243 484 516 327 356 461 510 478 546 44 94 27 183 -51 260 -80 80 -169 96
-266 48 -46 -24 -109 -88 -412 -418 -197 -214 -362 -390 -367 -390 -5 0 -170
176 -367 390 -303 330 -366 394 -412 418 -59 29 -118 34 -181 14z"/>
</g>
</svg>
